<!--?xml version="1.0" encoding="utf-8"?-->
<!-- Generator: Adobe Illustrator 18.1.1, SVG Export Plug-In . SVG Version: 6.00 Build 0)  -->

<svg version="1.1" id="_x31_0" xmlns="http://www.w3.org/2000/svg" xmlns:xlink="http://www.w3.org/1999/xlink" x="0px" y="0px" viewBox="0 0 512 512" style="width: 256px; height: 256px; opacity: 1;" xml:space="preserve">
<style type="text/css">
	.st0{fill:#374149;}
</style>
<g>
	<path class="st0" d="M497.442,240.932c-4.078-4.223-101.031-103.215-241.371-103.215c-140.336,0-237.293,98.992-241.367,103.215
		L0,256.072l14.703,15.141c4.074,4.219,101.031,103.07,241.367,103.07c140.34,0,237.293-98.851,241.371-103.07L512,256.072
		L497.442,240.932z M68.782,260.65c-2.024-1.59-3.93-3.125-5.723-4.598c28.11-23.153,89.09-65.492,167.535-73.207
		c-30.426,10.336-52.262,39.16-52.262,73.226c0,26.469,13.379,49.914,33.754,63.902c5.309,3.688,11.098,6.778,17.332,9.098
		C156.742,321.432,98.961,284.194,68.782,260.65z M279.946,213.271c13.246,0,24.019,10.774,24.019,24.02
		c0,13.25-10.774,23.875-24.019,23.875c-13.25,0-23.875-10.626-23.875-23.875C256.07,224.045,266.695,213.271,279.946,213.271z
		 M282.426,328.92c29.825-10.653,51.238-39.297,51.238-72.848c0-34.066-21.836-62.89-52.266-73.226
		c73.379,7.242,131.871,45.008,162.012,68.754c1.949,1.55,3.793,3.05,5.527,4.492c-23.254,19.152-68.954,51.187-128.282,66.148
		C308.457,325.267,295.715,327.603,282.426,328.92z" style="fill: rgb(75, 75, 75);"></path>
</g>
</svg>
